<mxfile host="app.diagrams.net" modified="2023-06-05T11:54:18.818Z" agent="Mozilla/5.0 (Windows NT 10.0; Win64; x64) AppleWebKit/537.36 (KHTML, like Gecko) Chrome/110.0.0.0 YaBrowser/23.3.4.605 Yowser/2.5 Safari/537.36" etag="_KOenXqgpO7T5Gq-nqQ2" version="21.3.7" type="device">
  <diagram name="shema" id="3yRUzxGco7p7gHoINsz3">
    <mxGraphModel dx="911" dy="495" grid="1" gridSize="10" guides="1" tooltips="1" connect="1" arrows="1" fold="1" page="1" pageScale="1" pageWidth="827" pageHeight="1169" math="0" shadow="0">
      <root>
        <mxCell id="0" />
        <mxCell id="1" parent="0" />
        <mxCell id="kalXQZEqgT0f3mHsOKg4-2" value="Shema" style="rounded=0;whiteSpace=wrap;html=1;" vertex="1" parent="1">
          <mxGeometry x="254" y="160" width="176" height="120" as="geometry" />
        </mxCell>
        <mxCell id="kalXQZEqgT0f3mHsOKg4-3" value="freq_dev&lt;br&gt;(делитель частоты)" style="rounded=0;whiteSpace=wrap;html=1;" vertex="1" parent="1">
          <mxGeometry x="300" y="310" width="120" height="60" as="geometry" />
        </mxCell>
        <mxCell id="kalXQZEqgT0f3mHsOKg4-4" value="Тумблеры" style="rounded=0;whiteSpace=wrap;html=1;" vertex="1" parent="1">
          <mxGeometry x="80" y="120" width="80" height="240" as="geometry" />
        </mxCell>
        <mxCell id="kalXQZEqgT0f3mHsOKg4-5" value="Семисегментники" style="rounded=0;whiteSpace=wrap;html=1;" vertex="1" parent="1">
          <mxGeometry x="99" y="380" width="350" height="50" as="geometry" />
        </mxCell>
        <mxCell id="kalXQZEqgT0f3mHsOKg4-6" value="res_toseg7&lt;br&gt;(модуль семисегментников)" style="rounded=0;whiteSpace=wrap;html=1;" vertex="1" parent="1">
          <mxGeometry x="470" y="310" width="190" height="60" as="geometry" />
        </mxCell>
        <mxCell id="kalXQZEqgT0f3mHsOKg4-7" value="Кнопка reset (P17)" style="rounded=0;whiteSpace=wrap;html=1;" vertex="1" parent="1">
          <mxGeometry x="200" y="50" width="60" height="50" as="geometry" />
        </mxCell>
        <mxCell id="kalXQZEqgT0f3mHsOKg4-8" value="Кнопка start&lt;br&gt;(M17)" style="rounded=0;whiteSpace=wrap;html=1;" vertex="1" parent="1">
          <mxGeometry x="280" y="50" width="60" height="50" as="geometry" />
        </mxCell>
        <mxCell id="kalXQZEqgT0f3mHsOKg4-9" value="Светодиод busy&lt;br&gt;(H17)" style="rounded=0;whiteSpace=wrap;html=1;" vertex="1" parent="1">
          <mxGeometry x="379" y="50" width="70" height="50" as="geometry" />
        </mxCell>
        <mxCell id="kalXQZEqgT0f3mHsOKg4-10" value="" style="endArrow=classic;html=1;rounded=0;exitX=0.5;exitY=1;exitDx=0;exitDy=0;entryX=0.25;entryY=0;entryDx=0;entryDy=0;" edge="1" parent="1" source="kalXQZEqgT0f3mHsOKg4-7" target="kalXQZEqgT0f3mHsOKg4-2">
          <mxGeometry relative="1" as="geometry">
            <mxPoint x="360" y="280" as="sourcePoint" />
            <mxPoint x="460" y="280" as="targetPoint" />
            <Array as="points">
              <mxPoint x="230" y="140" />
              <mxPoint x="280" y="140" />
            </Array>
          </mxGeometry>
        </mxCell>
        <mxCell id="kalXQZEqgT0f3mHsOKg4-11" value="rst_i" style="edgeLabel;resizable=0;html=1;align=center;verticalAlign=middle;" connectable="0" vertex="1" parent="kalXQZEqgT0f3mHsOKg4-10">
          <mxGeometry relative="1" as="geometry">
            <mxPoint y="-20" as="offset" />
          </mxGeometry>
        </mxCell>
        <mxCell id="kalXQZEqgT0f3mHsOKg4-12" value="" style="endArrow=classic;html=1;rounded=0;exitX=0.5;exitY=1;exitDx=0;exitDy=0;entryX=0.5;entryY=0;entryDx=0;entryDy=0;" edge="1" parent="1" source="kalXQZEqgT0f3mHsOKg4-8" target="kalXQZEqgT0f3mHsOKg4-2">
          <mxGeometry relative="1" as="geometry">
            <mxPoint x="256" y="140" as="sourcePoint" />
            <mxPoint x="280" y="195" as="targetPoint" />
            <Array as="points" />
          </mxGeometry>
        </mxCell>
        <mxCell id="kalXQZEqgT0f3mHsOKg4-13" value="start_i" style="edgeLabel;resizable=0;html=1;align=center;verticalAlign=middle;" connectable="0" vertex="1" parent="kalXQZEqgT0f3mHsOKg4-12">
          <mxGeometry relative="1" as="geometry" />
        </mxCell>
        <mxCell id="kalXQZEqgT0f3mHsOKg4-15" value="" style="endArrow=classic;html=1;rounded=0;entryX=0.5;entryY=1;entryDx=0;entryDy=0;exitX=0.75;exitY=0;exitDx=0;exitDy=0;" edge="1" parent="1" source="kalXQZEqgT0f3mHsOKg4-2" target="kalXQZEqgT0f3mHsOKg4-9">
          <mxGeometry relative="1" as="geometry">
            <mxPoint x="290" y="220" as="sourcePoint" />
            <mxPoint x="390" y="220" as="targetPoint" />
            <Array as="points">
              <mxPoint x="380" y="120" />
              <mxPoint x="414" y="120" />
            </Array>
          </mxGeometry>
        </mxCell>
        <mxCell id="kalXQZEqgT0f3mHsOKg4-16" value="busy_o" style="edgeLabel;resizable=0;html=1;align=center;verticalAlign=middle;" connectable="0" vertex="1" parent="kalXQZEqgT0f3mHsOKg4-15">
          <mxGeometry relative="1" as="geometry" />
        </mxCell>
        <mxCell id="kalXQZEqgT0f3mHsOKg4-23" value="" style="endArrow=classic;html=1;rounded=0;exitX=1.007;exitY=0.063;exitDx=0;exitDy=0;exitPerimeter=0;entryX=0;entryY=0.25;entryDx=0;entryDy=0;" edge="1" parent="1" source="kalXQZEqgT0f3mHsOKg4-4">
          <mxGeometry relative="1" as="geometry">
            <mxPoint x="159.99999999999997" y="165.91999999999996" as="sourcePoint" />
            <mxPoint x="254.08" y="165" as="targetPoint" />
          </mxGeometry>
        </mxCell>
        <mxCell id="kalXQZEqgT0f3mHsOKg4-24" value="SW[0]" style="edgeLabel;resizable=0;html=1;align=center;verticalAlign=middle;" connectable="0" vertex="1" parent="kalXQZEqgT0f3mHsOKg4-23">
          <mxGeometry relative="1" as="geometry" />
        </mxCell>
        <mxCell id="kalXQZEqgT0f3mHsOKg4-25" value="" style="endArrow=classic;html=1;rounded=0;entryX=-0.014;entryY=0.369;entryDx=0;entryDy=0;entryPerimeter=0;exitX=1.023;exitY=0.181;exitDx=0;exitDy=0;exitPerimeter=0;" edge="1" parent="1" source="kalXQZEqgT0f3mHsOKg4-4">
          <mxGeometry relative="1" as="geometry">
            <mxPoint x="160.71999999999989" y="178.64" as="sourcePoint" />
            <mxPoint x="252.40000000000006" y="176.89999999999998" as="targetPoint" />
          </mxGeometry>
        </mxCell>
        <mxCell id="kalXQZEqgT0f3mHsOKg4-26" value="SW[1]" style="edgeLabel;resizable=0;html=1;align=center;verticalAlign=middle;" connectable="0" vertex="1" parent="kalXQZEqgT0f3mHsOKg4-25">
          <mxGeometry relative="1" as="geometry" />
        </mxCell>
        <mxCell id="kalXQZEqgT0f3mHsOKg4-27" value="" style="endArrow=classic;html=1;rounded=0;entryX=-0.014;entryY=0.369;entryDx=0;entryDy=0;entryPerimeter=0;exitX=1.015;exitY=0.351;exitDx=0;exitDy=0;exitPerimeter=0;" edge="1" parent="1" source="kalXQZEqgT0f3mHsOKg4-4">
          <mxGeometry relative="1" as="geometry">
            <mxPoint x="163.08" y="212" as="sourcePoint" />
            <mxPoint x="254.08" y="210" as="targetPoint" />
          </mxGeometry>
        </mxCell>
        <mxCell id="kalXQZEqgT0f3mHsOKg4-28" value="SW[7]" style="edgeLabel;resizable=0;html=1;align=center;verticalAlign=middle;" connectable="0" vertex="1" parent="kalXQZEqgT0f3mHsOKg4-27">
          <mxGeometry relative="1" as="geometry" />
        </mxCell>
        <mxCell id="kalXQZEqgT0f3mHsOKg4-29" value="" style="endArrow=classic;html=1;rounded=0;entryX=0.001;entryY=0.893;entryDx=0;entryDy=0;entryPerimeter=0;exitX=1.003;exitY=0.931;exitDx=0;exitDy=0;exitPerimeter=0;" edge="1" parent="1" source="kalXQZEqgT0f3mHsOKg4-4" target="kalXQZEqgT0f3mHsOKg4-2">
          <mxGeometry relative="1" as="geometry">
            <mxPoint x="173.08" y="222" as="sourcePoint" />
            <mxPoint x="264.08000000000004" y="220" as="targetPoint" />
          </mxGeometry>
        </mxCell>
        <mxCell id="kalXQZEqgT0f3mHsOKg4-30" value="SW[15]" style="edgeLabel;resizable=0;html=1;align=center;verticalAlign=middle;" connectable="0" vertex="1" parent="kalXQZEqgT0f3mHsOKg4-29">
          <mxGeometry relative="1" as="geometry" />
        </mxCell>
        <mxCell id="kalXQZEqgT0f3mHsOKg4-31" value="..." style="text;html=1;strokeColor=none;fillColor=none;align=center;verticalAlign=middle;whiteSpace=wrap;rounded=0;" vertex="1" parent="1">
          <mxGeometry x="170" y="180" width="60" height="30" as="geometry" />
        </mxCell>
        <mxCell id="kalXQZEqgT0f3mHsOKg4-32" value="..." style="text;html=1;strokeColor=none;fillColor=none;align=center;verticalAlign=middle;whiteSpace=wrap;rounded=0;" vertex="1" parent="1">
          <mxGeometry x="170" y="230" width="60" height="30" as="geometry" />
        </mxCell>
        <mxCell id="kalXQZEqgT0f3mHsOKg4-33" value="a[0]&lt;br&gt;...&lt;br&gt;&lt;br&gt;a[7]&lt;br&gt;b[0]&lt;br&gt;...&lt;br&gt;&lt;br&gt;b[7]" style="text;html=1;strokeColor=none;fillColor=none;align=center;verticalAlign=middle;whiteSpace=wrap;rounded=0;" vertex="1" parent="1">
          <mxGeometry x="240" y="170" width="50" height="100" as="geometry" />
        </mxCell>
        <mxCell id="kalXQZEqgT0f3mHsOKg4-36" value="" style="endArrow=classic;html=1;rounded=0;entryX=0.949;entryY=-0.02;entryDx=0;entryDy=0;entryPerimeter=0;" edge="1" parent="1" target="kalXQZEqgT0f3mHsOKg4-2">
          <mxGeometry relative="1" as="geometry">
            <mxPoint x="430" y="130" as="sourcePoint" />
            <mxPoint x="540" y="140" as="targetPoint" />
          </mxGeometry>
        </mxCell>
        <mxCell id="kalXQZEqgT0f3mHsOKg4-37" value="clk_i" style="edgeLabel;resizable=0;html=1;align=center;verticalAlign=middle;" connectable="0" vertex="1" parent="kalXQZEqgT0f3mHsOKg4-36">
          <mxGeometry relative="1" as="geometry">
            <mxPoint x="4" y="-4" as="offset" />
          </mxGeometry>
        </mxCell>
        <mxCell id="kalXQZEqgT0f3mHsOKg4-38" value="" style="endArrow=classic;html=1;rounded=0;exitX=0.25;exitY=1;exitDx=0;exitDy=0;entryX=0.5;entryY=0;entryDx=0;entryDy=0;" edge="1" parent="1" source="kalXQZEqgT0f3mHsOKg4-2" target="kalXQZEqgT0f3mHsOKg4-3">
          <mxGeometry relative="1" as="geometry">
            <mxPoint x="250" y="290" as="sourcePoint" />
            <mxPoint x="350" y="290" as="targetPoint" />
          </mxGeometry>
        </mxCell>
        <mxCell id="kalXQZEqgT0f3mHsOKg4-39" value="clk_i" style="edgeLabel;resizable=0;html=1;align=center;verticalAlign=middle;" connectable="0" vertex="1" parent="kalXQZEqgT0f3mHsOKg4-38">
          <mxGeometry relative="1" as="geometry" />
        </mxCell>
        <mxCell id="kalXQZEqgT0f3mHsOKg4-41" value="" style="endArrow=classic;html=1;rounded=0;exitX=1;exitY=0.5;exitDx=0;exitDy=0;entryX=0;entryY=0.5;entryDx=0;entryDy=0;" edge="1" parent="1" source="kalXQZEqgT0f3mHsOKg4-3" target="kalXQZEqgT0f3mHsOKg4-6">
          <mxGeometry relative="1" as="geometry">
            <mxPoint x="308" y="290" as="sourcePoint" />
            <mxPoint x="310" y="310" as="targetPoint" />
          </mxGeometry>
        </mxCell>
        <mxCell id="kalXQZEqgT0f3mHsOKg4-42" value="clk_o" style="edgeLabel;resizable=0;html=1;align=center;verticalAlign=middle;" connectable="0" vertex="1" parent="kalXQZEqgT0f3mHsOKg4-41">
          <mxGeometry relative="1" as="geometry" />
        </mxCell>
        <mxCell id="kalXQZEqgT0f3mHsOKg4-44" value="" style="endArrow=classic;html=1;rounded=0;entryX=0.25;entryY=0;entryDx=0;entryDy=0;exitX=1;exitY=1;exitDx=0;exitDy=0;" edge="1" parent="1" source="kalXQZEqgT0f3mHsOKg4-2" target="kalXQZEqgT0f3mHsOKg4-6">
          <mxGeometry relative="1" as="geometry">
            <mxPoint x="390" y="250" as="sourcePoint" />
            <mxPoint x="490" y="250" as="targetPoint" />
            <Array as="points" />
          </mxGeometry>
        </mxCell>
        <mxCell id="kalXQZEqgT0f3mHsOKg4-45" value="x" style="edgeLabel;resizable=0;html=1;align=center;verticalAlign=middle;" connectable="0" vertex="1" parent="kalXQZEqgT0f3mHsOKg4-44">
          <mxGeometry relative="1" as="geometry" />
        </mxCell>
        <mxCell id="kalXQZEqgT0f3mHsOKg4-46" value="" style="endArrow=classic;html=1;rounded=0;entryX=1;entryY=0.75;entryDx=0;entryDy=0;exitX=0.5;exitY=0;exitDx=0;exitDy=0;" edge="1" parent="1" source="kalXQZEqgT0f3mHsOKg4-6" target="kalXQZEqgT0f3mHsOKg4-2">
          <mxGeometry relative="1" as="geometry">
            <mxPoint x="440" y="260" as="sourcePoint" />
            <mxPoint x="472" y="310" as="targetPoint" />
            <Array as="points" />
          </mxGeometry>
        </mxCell>
        <mxCell id="kalXQZEqgT0f3mHsOKg4-47" value="digit&lt;br&gt;(7seg_led combination)" style="edgeLabel;resizable=0;html=1;align=center;verticalAlign=middle;" connectable="0" vertex="1" parent="kalXQZEqgT0f3mHsOKg4-46">
          <mxGeometry relative="1" as="geometry">
            <mxPoint x="47" y="5" as="offset" />
          </mxGeometry>
        </mxCell>
        <mxCell id="kalXQZEqgT0f3mHsOKg4-49" value="AB func" style="rounded=0;whiteSpace=wrap;html=1;" vertex="1" parent="1">
          <mxGeometry x="500" y="150" width="100" height="80" as="geometry" />
        </mxCell>
        <mxCell id="kalXQZEqgT0f3mHsOKg4-50" value="" style="endArrow=classic;html=1;rounded=0;exitX=1;exitY=0;exitDx=0;exitDy=0;entryX=0.75;entryY=0;entryDx=0;entryDy=0;" edge="1" parent="1" source="kalXQZEqgT0f3mHsOKg4-2" target="kalXQZEqgT0f3mHsOKg4-49">
          <mxGeometry relative="1" as="geometry">
            <mxPoint x="240" y="110" as="sourcePoint" />
            <mxPoint x="480" y="140" as="targetPoint" />
            <Array as="points">
              <mxPoint x="450" y="160" />
              <mxPoint x="450" y="120" />
              <mxPoint x="575" y="120" />
            </Array>
          </mxGeometry>
        </mxCell>
        <mxCell id="kalXQZEqgT0f3mHsOKg4-51" value="rst_i" style="edgeLabel;resizable=0;html=1;align=center;verticalAlign=middle;" connectable="0" vertex="1" parent="kalXQZEqgT0f3mHsOKg4-50">
          <mxGeometry relative="1" as="geometry">
            <mxPoint x="10" y="1" as="offset" />
          </mxGeometry>
        </mxCell>
        <mxCell id="kalXQZEqgT0f3mHsOKg4-52" value="" style="endArrow=classic;html=1;rounded=0;exitX=1;exitY=0.151;exitDx=0;exitDy=0;exitPerimeter=0;entryX=0.5;entryY=0;entryDx=0;entryDy=0;" edge="1" parent="1" source="kalXQZEqgT0f3mHsOKg4-2" target="kalXQZEqgT0f3mHsOKg4-49">
          <mxGeometry relative="1" as="geometry">
            <mxPoint x="320" y="110" as="sourcePoint" />
            <mxPoint x="352" y="170" as="targetPoint" />
            <Array as="points">
              <mxPoint x="460" y="178" />
              <mxPoint x="460" y="130" />
              <mxPoint x="550" y="130" />
            </Array>
          </mxGeometry>
        </mxCell>
        <mxCell id="kalXQZEqgT0f3mHsOKg4-53" value="start_i" style="edgeLabel;resizable=0;html=1;align=center;verticalAlign=middle;" connectable="0" vertex="1" parent="kalXQZEqgT0f3mHsOKg4-52">
          <mxGeometry relative="1" as="geometry" />
        </mxCell>
        <mxCell id="kalXQZEqgT0f3mHsOKg4-54" value="" style="endArrow=classic;html=1;rounded=0;entryX=1;entryY=0.625;entryDx=0;entryDy=0;exitX=0.5;exitY=1;exitDx=0;exitDy=0;entryPerimeter=0;" edge="1" parent="1" source="kalXQZEqgT0f3mHsOKg4-49" target="kalXQZEqgT0f3mHsOKg4-2">
          <mxGeometry relative="1" as="geometry">
            <mxPoint x="396" y="170" as="sourcePoint" />
            <mxPoint x="424" y="110" as="targetPoint" />
            <Array as="points">
              <mxPoint x="550" y="240" />
              <mxPoint x="450" y="240" />
            </Array>
          </mxGeometry>
        </mxCell>
        <mxCell id="kalXQZEqgT0f3mHsOKg4-55" value="busy_o" style="edgeLabel;resizable=0;html=1;align=center;verticalAlign=middle;" connectable="0" vertex="1" parent="kalXQZEqgT0f3mHsOKg4-54">
          <mxGeometry relative="1" as="geometry" />
        </mxCell>
        <mxCell id="kalXQZEqgT0f3mHsOKg4-58" value="" style="endArrow=classic;html=1;rounded=0;entryX=0;entryY=0.25;entryDx=0;entryDy=0;exitX=1;exitY=0.25;exitDx=0;exitDy=0;" edge="1" parent="1" source="kalXQZEqgT0f3mHsOKg4-2" target="kalXQZEqgT0f3mHsOKg4-49">
          <mxGeometry relative="1" as="geometry">
            <mxPoint x="430" y="200" as="sourcePoint" />
            <mxPoint x="530" y="200" as="targetPoint" />
            <Array as="points">
              <mxPoint x="470" y="190" />
              <mxPoint x="470" y="170" />
            </Array>
          </mxGeometry>
        </mxCell>
        <mxCell id="kalXQZEqgT0f3mHsOKg4-59" value="a[7:0]" style="edgeLabel;resizable=0;html=1;align=center;verticalAlign=middle;" connectable="0" vertex="1" parent="kalXQZEqgT0f3mHsOKg4-58">
          <mxGeometry relative="1" as="geometry">
            <mxPoint x="-10" y="5" as="offset" />
          </mxGeometry>
        </mxCell>
        <mxCell id="kalXQZEqgT0f3mHsOKg4-60" value="" style="endArrow=classic;html=1;rounded=0;entryX=0;entryY=0.5;entryDx=0;entryDy=0;exitX=0.996;exitY=0.385;exitDx=0;exitDy=0;exitPerimeter=0;" edge="1" parent="1" source="kalXQZEqgT0f3mHsOKg4-2" target="kalXQZEqgT0f3mHsOKg4-49">
          <mxGeometry relative="1" as="geometry">
            <mxPoint x="440" y="210" as="sourcePoint" />
            <mxPoint x="510" y="180" as="targetPoint" />
            <Array as="points">
              <mxPoint x="480" y="206" />
              <mxPoint x="480" y="190" />
            </Array>
          </mxGeometry>
        </mxCell>
        <mxCell id="kalXQZEqgT0f3mHsOKg4-61" value="b[7:0]" style="edgeLabel;resizable=0;html=1;align=center;verticalAlign=middle;" connectable="0" vertex="1" parent="kalXQZEqgT0f3mHsOKg4-60">
          <mxGeometry relative="1" as="geometry" />
        </mxCell>
        <mxCell id="kalXQZEqgT0f3mHsOKg4-62" value="" style="endArrow=classic;html=1;rounded=0;exitX=0;exitY=0.881;exitDx=0;exitDy=0;exitPerimeter=0;entryX=1;entryY=0.5;entryDx=0;entryDy=0;" edge="1" parent="1" source="kalXQZEqgT0f3mHsOKg4-49" target="kalXQZEqgT0f3mHsOKg4-2">
          <mxGeometry relative="1" as="geometry">
            <mxPoint x="370" y="240" as="sourcePoint" />
            <mxPoint x="470" y="240" as="targetPoint" />
          </mxGeometry>
        </mxCell>
        <mxCell id="kalXQZEqgT0f3mHsOKg4-63" value="y[15:0]" style="edgeLabel;resizable=0;html=1;align=center;verticalAlign=middle;" connectable="0" vertex="1" parent="kalXQZEqgT0f3mHsOKg4-62">
          <mxGeometry relative="1" as="geometry" />
        </mxCell>
        <mxCell id="kalXQZEqgT0f3mHsOKg4-64" value="" style="endArrow=classic;html=1;rounded=0;entryX=0;entryY=0;entryDx=0;entryDy=0;exitX=0.75;exitY=1;exitDx=0;exitDy=0;" edge="1" parent="1" source="kalXQZEqgT0f3mHsOKg4-2" target="kalXQZEqgT0f3mHsOKg4-6">
          <mxGeometry relative="1" as="geometry">
            <mxPoint x="510" y="230" as="sourcePoint" />
            <mxPoint x="440" y="230" as="targetPoint" />
          </mxGeometry>
        </mxCell>
        <mxCell id="kalXQZEqgT0f3mHsOKg4-65" value="y[15:0]" style="edgeLabel;resizable=0;html=1;align=center;verticalAlign=middle;" connectable="0" vertex="1" parent="kalXQZEqgT0f3mHsOKg4-64">
          <mxGeometry relative="1" as="geometry" />
        </mxCell>
        <mxCell id="kalXQZEqgT0f3mHsOKg4-66" value="" style="endArrow=classic;html=1;rounded=0;exitX=0.133;exitY=1.011;exitDx=0;exitDy=0;exitPerimeter=0;entryX=0.31;entryY=0;entryDx=0;entryDy=0;entryPerimeter=0;" edge="1" parent="1" source="kalXQZEqgT0f3mHsOKg4-2" target="kalXQZEqgT0f3mHsOKg4-5">
          <mxGeometry relative="1" as="geometry">
            <mxPoint x="330" y="320" as="sourcePoint" />
            <mxPoint x="430" y="320" as="targetPoint" />
          </mxGeometry>
        </mxCell>
        <mxCell id="kalXQZEqgT0f3mHsOKg4-67" value="for i in (0, 5):&lt;br&gt;digits" style="edgeLabel;resizable=0;html=1;align=center;verticalAlign=middle;" connectable="0" vertex="1" parent="kalXQZEqgT0f3mHsOKg4-66">
          <mxGeometry relative="1" as="geometry" />
        </mxCell>
      </root>
    </mxGraphModel>
  </diagram>
</mxfile>
